<?xml version="1.0" standalone="no"?>
<!DOCTYPE svg PUBLIC "-//W3C//DTD SVG 20010904//EN"
 "http://www.w3.org/TR/2001/REC-SVG-20010904/DTD/svg10.dtd">
<svg version="1.0" xmlns="http://www.w3.org/2000/svg"
 width="205.000000pt" height="205.000000pt" viewBox="0 0 205.000000 205.000000"
 preserveAspectRatio="xMidYMid meet">
<metadata>
Created by potrace 1.11, written by Peter Selinger 2001-2013
</metadata>
<g transform="translate(0.000000,205.000000) scale(0.100000,-0.100000)"
fill="#000000" stroke="none">
<path d="M425 2014 c-8 -13 -13 -24 -10 -24 3 0 0 -10 -7 -22 -7 -13 -13 -25
-13 -28 0 -3 -9 -26 -19 -52 -15 -39 -25 -49 -65 -67 -26 -11 -81 -27 -122
-37 -40 -9 -79 -20 -85 -25 -6 -5 -14 -6 -17 -2 -4 3 -7 -5 -8 -18 -1 -13 -2
-40 -3 -59 -1 -19 2 -40 7 -47 4 -6 3 -14 -3 -18 -6 -3 -7 -11 -3 -18 3 -6 7
-43 8 -81 3 -95 15 -221 25 -256 5 -16 6 -30 4 -32 -6 -6 33 -191 60 -281 75
-256 188 -457 351 -623 101 -103 208 -180 340 -246 149 -75 153 -75 232 -35
61 30 86 44 164 89 26 15 43 27 64 46 7 6 16 12 20 12 7 0 9 1 102 79 130 110
245 255 313 399 54 113 74 161 95 232 9 30 19 62 22 70 3 8 7 24 9 35 5 30 12
60 14 60 1 0 3 9 5 20 1 11 5 34 8 50 6 29 10 52 23 140 12 86 22 214 29 373
4 95 3 112 -10 113 -8 1 -18 2 -22 4 -5 1 -26 5 -48 9 -169 33 -214 71 -246
208 l-13 57 -592 0 -593 0 -16 -25z"/>
</g>
</svg>
